# xmcd
#
# Track frame offsets:
#	150
#	17909
#	38797
#	58187
#	77435
#	96200
#	113873
#	134363
#	151931
#	173330
#	188041
#	212417
#	233034
#	255402
#
# Disc length: 3577 seconds
# Revision: 0
# Processed by: cddbd v1.5.2PL0 Copyright (c) Steve Scherf et al.
# Submitted via: dBpowerAMP V12.0
#
DISCID=a70df70e
DTITLE=FanWeiQi 范玮琪 - Classic FanFan
DYEAR=2008
DGENRE=Chinese
TTITLE0=一顆心的距離
TTITLE1=啟程
TTITLE2=一比一
TTITLE3=可不可以不勇敢
TTITLE4=一個像夏天 一個像秋天
TTITLE5=是非題
TTITLE6=我們的紀念日
TTITLE7=因為
TTITLE8=你是答案
TTITLE9=哲學家
TTITLE10=那些花兒
TTITLE11=沒那麼愛他
TTITLE12=最初的夢想
TTITLE13=Fan精選
EXTD=
EXTT0=
EXTT1=
EXTT2=
EXTT3=
EXTT4=
EXTT5=
EXTT6=
EXTT7=
EXTT8=
EXTT9=
EXTT10=
EXTT11=
EXTT12=
EXTT13=
PLAYORDER=
